{
  "accessors": [
    {
      "bufferView": 2,
      "componentType": 5126,
      "count": 65533,
      "max": [
        19.2974796295166,
        17.481660842895508,
        48.927398681640625
      ],
      "min": [
        -23.299650192260742,
        -17.044340133666992,
        -83.3809814453125
      ],
      "type": "VEC3"
    },
    {
      "bufferView": 2,
      "byteOffset": 786396,
      "componentType": 5126,
      "count": 65533,
      "max": [
        0.9999877214431763,
        0.9999930262565613,
        0.9999986886978149
      ],
      "min": [
        -0.9999983906745911,
        -0.9999821782112122,
        -0.9999924898147583
      ],
      "type": "VEC3"
    },
    {
      "bufferView": 1,
      "componentType": 5126,
      "count": 65533,
      "max": [
        0.5400670766830444,
        0.8350446224212646
      ],
      "min": [
        0.4585936963558197,
        0.41060879826545715
      ],
      "type": "VEC2"
    },
    {
      "bufferView": 0,
      "componentType": 5125,
      "count": 385803,
      "type": "SCALAR"
    },
    {
      "bufferView": 2,
      "byteOffset": 1572792,
      "componentType": 5126,
      "count": 16344,
      "max": [
        17.964630126953125,
        16.05621910095215,
        52.694671630859375
      ],
      "min": [
        -24.948640823364258,
        -17.960390090942383,
        -78.46195983886719
      ],
      "type": "VEC3"
    },
    {
      "bufferView": 2,
      "byteOffset": 1768920,
      "componentType": 5126,
      "count": 16344,
      "max": [
        0.9999681711196899,
        0.9999834895133972,
        0.9999991059303284
      ],
      "min": [
        -0.9999544024467468,
        -0.9999886751174927,
        -0.9997150897979736
      ],
      "type": "VEC3"
    },
    {
      "bufferView": 1,
      "byteOffset": 524264,
      "componentType": 5126,
      "count": 16344,
      "max": [
        0.6113579273223877,
        0.9108833074569702
      ],
      "min": [
        0.39702969789505005,
        0.41060879826545715
      ],
      "type": "VEC2"
    },
    {
      "bufferView": 0,
      "byteOffset": 1543212,
      "componentType": 5125,
      "count": 93171,
      "type": "SCALAR"
    }
  ],
  "asset": {
    "extras": {
      "author": "3Dee (https://sketchfab.com/mellydeeis)",
      "license": "SKETCHFAB Standard (https://sketchfab.com/licenses)",
      "source": "https://sketchfab.com/3d-models/jellyfish-ac23cb21d5f742f79f5c9bfe5d38d10c",
      "title": "JellyFish"
    },
    "generator": "Sketchfab-12.67.0",
    "version": "2.0"
  },
  "bufferViews": [
    {
      "buffer": 0,
      "byteLength": 1915896,
      "name": "floatBufferViews",
      "target": 34963
    },
    {
      "buffer": 0,
      "byteLength": 655016,
      "byteOffset": 1915896,
      "byteStride": 8,
      "name": "floatBufferViews",
      "target": 34962
    },
    {
      "buffer": 0,
      "byteLength": 1965048,
      "byteOffset": 2570912,
      "byteStride": 12,
      "name": "floatBufferViews",
      "target": 34962
    }
  ],
  "buffers": [
    {
      "byteLength": 4535960,
      "uri": "scene.bin"
    }
  ],
  "images": [
    {
      "uri": "textures/Material_baseColor.png"
    },
    {
      "uri": "textures/Material_metallicRoughness.png"
    }
  ],
  "materials": [
    {
      "alphaMode": "BLEND",
      "doubleSided": true,
      "name": "Material",
      "pbrMetallicRoughness": {
        "baseColorFactor": [
          0.4621353395580378,
          0.799638267456646,
          0.8103699510436352,
          0.2641509433962264
        ],
        "baseColorTexture": {
          "index": 0
        },
        "metallicFactor": 0.9245283018867925,
        "metallicRoughnessTexture": {
          "index": 1
        },
        "roughnessFactor": 0.3836477987421384
      }
    }
  ],
  "meshes": [
    {
      "name": "Material-material",
      "primitives": [
        {
          "attributes": {
            "NORMAL": 1,
            "POSITION": 0,
            "TEXCOORD_0": 2
          },
          "indices": 3,
          "material": 0,
          "mode": 4
        }
      ]
    },
    {
      "name": "Material-material",
      "primitives": [
        {
          "attributes": {
            "NORMAL": 5,
            "POSITION": 4,
            "TEXCOORD_0": 6
          },
          "indices": 7,
          "material": 0,
          "mode": 4
        }
      ]
    }
  ],
  "nodes": [
    {
      "children": [
        1
      ],
      "matrix": [
        1.0,
        0.0,
        0.0,
        0.0,
        0.0,
        2.220446049250313e-16,
        -1.0,
        0.0,
        0.0,
        1.0,
        2.220446049250313e-16,
        0.0,
        0.0,
        0.0,
        0.0,
        1.0
      ],
      "name": "Sketchfab_model"
    },
    {
      "children": [
        2
      ],
      "name": "Collada visual scene group"
    },
    {
      "children": [
        3,
        4
      ],
      "matrix": [
        0.03336178,
        -0.01419838,
        0.002883376,
        0.0,
        0.01419574,
        0.03348152,
        0.000620199,
        0.0,
        -0.003099447,
        0.000595516,
        0.03879426,
        0.0,
        0.03753874,
        0.04243502,
        1.159443,
        1.0
      ],
      "name": "Circle_008"
    },
    {
      "mesh": 0,
      "name": "Material-material"
    },
    {
      "mesh": 1,
      "name": "Material-material"
    }
  ],
  "samplers": [
    {
      "magFilter": 9729,
      "minFilter": 9987,
      "wrapS": 10497,
      "wrapT": 10497
    }
  ],
  "scene": 0,
  "scenes": [
    {
      "name": "Sketchfab_Scene",
      "nodes": [
        0
      ]
    }
  ],
  "textures": [
    {
      "sampler": 0,
      "source": 0
    },
    {
      "sampler": 0,
      "source": 1
    }
  ]
}
